<svg width="265" height="265" xmlns="http://www.w3.org/2000/svg">
  <g>
   <polygon fill="#59aeea" points="163.97084045410156,243.97674560546875 244.55111694335938,243.97674560546875 244.55111694335938,193.30079650878906 212.0445098876953,193.30079650878906 "/>
   <polygon fill="#59aeea" points="244.55111694335938,74.8746109008789 244.55111694335938,24.198768615722656 163.97084045410156,24.198768615722656 212.0445098876953,74.8746109008789 "/>
   <path fill="#1A1A1A" d="m0,0l0,264.65185l264.64799,0l0,-264.43211l-264.64799,-0.21974zm244.55112,243.97671l-80.58024,0l48.07751,-50.67974l32.50659,0l0,50.67974l-0.00386,0zm0,-169.10208l-32.50658,0l-48.07751,-50.67974l80.58024,0l0,50.67974l0.00385,0z"/>
   <g>
    <path fill="#FFFFFF" d="m22.09769,28.18882l0,211.97129l116.22877,0l49.35742,-51.89025l0,-109.49383l-49.33044,-50.58721l-116.25575,0zm68.77964,29.63064l17.36358,0l0,148.85101l-17.36358,0l0,-148.85101z"/>
   </g>
  </g>
</svg>