<?xml version="1.0" encoding="utf-8"?>
<!-- Generator: Adobe Illustrator 16.0.0, SVG Export Plug-In . SVG Version: 6.00 Build 0)  -->
<!DOCTYPE svg PUBLIC "-//W3C//DTD SVG 1.1//EN" "http://www.w3.org/Graphics/SVG/1.1/DTD/svg11.dtd">
<svg version="1.1" id="Layer_1" xmlns="http://www.w3.org/2000/svg" xmlns:xlink="http://www.w3.org/1999/xlink" x="0px" y="0px"
	 width="701px" height="219px" viewBox="0 0 701 219" enable-background="new 0 0 701 219" xml:space="preserve">
<path fill-rule="evenodd" clip-rule="evenodd" fill="#E88D09" d="M544.534,48.604c-14.083,0-28.163,0-42.806,0
	c0-11.57,0-22.272,0-32.974c-0.672,0.005-1.346,0.009-2.016,0.014c-13.014,0-26.029-0.002-39.042-0.002c0,8.015,0,16.031,0,24.211
	c0-8.181,0-16.196-0.001-24.211c-1.291,0.012-2.581,0.024-3.874,0.038c-0.023,11.133-0.047,22.266-0.068,33.398
	c1.535,0.107,3.07,0.3,4.604,0.303c27.757,0.037,55.513,0.052,83.269,0.071C544.739,49.158,544.719,48.874,544.534,48.604z"/>
<path fill-rule="evenodd" clip-rule="evenodd" fill="#024CF9" d="M634.418,49.186c-14.684,0.022-29.366,0.046-44.047,0.069
	c-0.082-11.215-0.171-22.433-0.254-33.651c10.076-0.054,20.237-0.91,30.188,0.175c4.959,0.542,9.529,4.636,14.275,7.122
	C634.525,31.662,634.473,40.423,634.418,49.186z"/>
<path fill-rule="evenodd" clip-rule="evenodd" fill="#E00704" d="M456.728,49.078c-12.251,0-24.504,0-36.988,0
	c0-5.387,0-10.302,0-15.866c9.085-5.554,18.382-11.568,28.046-16.915c2.389-1.321,5.979-0.471,9.011-0.617
	C456.772,26.813,456.749,37.945,456.728,49.078z"/>
<path fill-rule="evenodd" clip-rule="evenodd" fill="#6E0B89" d="M634.418,49.186c0.055-8.763,0.107-17.524,0.163-26.285
	c13.521,8.418,27.038,16.835,40.557,25.253c-0.146,0.343-0.294,0.687-0.441,1.032C661.271,49.186,647.844,49.186,634.418,49.186z"/>
<path fill-rule="evenodd" clip-rule="evenodd" fill="#328624" d="M590.117,15.604c-14.005,0.008-43.403,0.125-44.409,0.104
	c0.088,4.596,0.271,26.598,0,33.015c2.508-0.354,28.695,0.546,40.166,0.553c1.495-0.008,2.995-0.015,4.497-0.021
	C590.289,38.04,590.2,26.823,590.117,15.604z"/>
<path fill-rule="evenodd" clip-rule="evenodd" fill="#FE8B01" d="M365.047,173.288c0.055,9.653,0.11,19.308,0.171,28.964
	c-7.179,0.028-14.357,0.057-21.537,0.082c-0.334,0.002-0.669,0.002-1.004,0.003c-3.918-0.071-7.839-0.144-11.757-0.214
	c-0.145-0.242-0.355-0.402-0.63-0.477c-0.222-0.4-0.444-0.8-0.665-1.198c0.036-9.448,0.071-18.898,0.105-28.349
	c11.72,0.063,23.44,0.121,35.159,0.182C364.91,172.623,364.962,172.957,365.047,173.288z"/>
<path fill-rule="evenodd" clip-rule="evenodd" fill="#F7E603" d="M403.695,202.125c-12.826-0.067-25.651-0.137-38.478-0.205
	c-0.06-9.55-0.115-19.098-0.169-28.645c0.343-0.326,0.684-0.653,1.027-0.977c12.541-0.042,25.077-0.089,37.617-0.133
	C403.691,182.152,403.693,192.141,403.695,202.125z"/>
<path fill-rule="evenodd" clip-rule="evenodd" fill="#007D26" d="M403.695,202.125c-0.002-9.984-0.004-19.973-0.002-29.959
	c12.627-0.001,25.254-0.003,37.882-0.009c0,9.993-0.004,19.985-0.006,29.979C428.945,202.133,416.32,202.13,403.695,202.125z"/>
<path fill-rule="evenodd" clip-rule="evenodd" fill="#034CF7" d="M441.569,202.136c0.002-9.993,0.006-19.985,0.006-29.979
	c12.3,0.018,24.601,0.036,36.896,0.051c-0.002,9.958,0,19.919,0.002,29.876C466.174,202.1,453.87,202.117,441.569,202.136z"/>
<path fill-rule="evenodd" clip-rule="evenodd" fill="#E00904" d="M330.669,172.1c0.012,10.15,0.038,20.23,0,30.237
	c-4.169-3.016-8.58-6.086-12.592-9.294c-8.099-6.481-16.045-13.153-23.6-20.943C306.541,172.1,318.605,172.1,330.669,172.1z"/>
<path fill-rule="evenodd" clip-rule="evenodd" fill="#6E0B89" d="M513.949,172.24c-11.178,0.01-22.354,0.021-33.53,0.032
	c-0.646-0.021-1.295-0.041-1.948-0.064c-0.002,9.958,0,19.919-0.002,29.876c0.648-0.021,1.302-0.041,1.95-0.063
	c1.781-0.056,3.557-0.111,5.335-0.168c0.177-0.214,0.391-0.376,0.642-0.488c9.224-9.38,18.45-18.761,27.673-28.14
	C514.01,172.897,513.973,172.57,513.949,172.24z"/>
<g id="svg_1_1_">
	<path id="svg_3" fill="#1A1A1A" d="M701.069,48.7L623.302,0H444.115l-74.148,48.831h-99.162l-10.04,10.279l-10.288-10.279h-85.889
		l-10.436,10.201l-38.969-39.964H0v199.841h116.641l45.768-45.738h87.808l9.562-9.796l66.135,55.634l334.156-0.087l41.117-41.274
		V48.695h-0.117V48.7L701.069,48.7z M449.51,15.708h169.194l52.397,33.043l-250.099-0.057V33.157L449.51,15.708L449.51,15.708z
		 M295.827,173.171H506.74l-28.533,28.615H330.681L295.827,173.171z"/>
	<g id="svg_11">
		<path id="svg_4" fill="#F2F2F2" d="M17.249,36.311v165.476h90.735l38.525-40.513V75.797l-38.508-39.486H17.249z M70.942,59.445
			h13.555v116.197H70.942V59.445z"/>
		<path id="svg_5" fill="#F2F2F2" d="M212.688,146.791h-11.224v-22.338l53.938-22.207v-22.93l-13.264-13.255h-70.485l-13.25,12.946
			v64.09v12.92h84.415l12.585-12.898v-29.254l-42.714,17.262V146.791z M201.464,75.288h11.224v31.669h-11.224V75.288z"/>
		<polygon id="svg_6" fill="#F2F2F2" points="362.571,114.553 308.643,91.988 308.643,75.636 319.866,75.636 319.866,85.307 
			362.571,102.568 362.571,66.057 278.174,66.057 265.563,79.299 265.563,100.558 319.866,125.589 319.866,146.791 308.643,146.791 
			308.643,132.097 265.563,111.986 265.563,143.686 277.866,156.014 349.321,156.014 362.571,143.067 		"/>
		<polygon id="svg_7" fill="#F2F2F2" points="428.846,156.014 428.846,123.522 408.392,123.522 408.392,95.381 428.846,95.381 
			428.846,66.057 408.392,66.057 408.392,40.865 372.729,64.848 372.729,143.115 385.323,156.014 		"/>
		<polygon id="svg_8" fill="#F2F2F2" points="474.675,66.057 439.013,66.057 439.013,156.014 462.813,156.014 474.675,144.155 		"/>
		<polygon id="svg_9" fill="#F2F2F2" points="487.313,66.057 487.313,156.014 526.498,156.014 526.498,88.334 538.065,88.334 
			538.065,156.014 577.265,156.014 577.265,79.338 563.983,66.057 		"/>
		<polygon id="svg_10" fill="#F2F2F2" points="631.185,66.057 599.659,66.057 587.065,78.973 587.065,143.098 599.994,156.014 
			642.417,156.014 642.417,166.885 537.565,166.885 502.721,201.786 652.883,201.786 684.073,170.591 684.073,66.057 
			642.417,66.057 642.417,125.293 631.185,125.293 		"/>
	</g>
</g>
<path fill-rule="evenodd" clip-rule="evenodd" fill="#F9EA02" d="M501.729,15.63c14.45-0.022,28.901-0.044,43.355-0.065
	c0,4.748-0.393,26.596-0.393,33.158c-14.08,0-28.32-0.119-42.963-0.119C501.729,37.034,501.729,26.332,501.729,15.63z"/>
<rect x="544.534" y="15.604" fill-rule="evenodd" clip-rule="evenodd" fill="#328624" width="45.583" height="33"/>
</svg>
